# xmcd
# 
# Track frame offsets:
#     150
#     30322
#     54436
#     77256
#     87700
#     103445
#     124161
#     145521
#     171627
#     189777
# 
# Disc length: 2807
# 
# Revision: 1
# Processed by: cddbd v1.5.2PL0 Copyright (c) Steve Scherf et al.
# Submitted via: fre:ac v1.0.17
# 
DISCID=7e0af50a
DTITLE=Stefan Zweig - Sternstunden der Menschheit [CD06]
DYEAR=2008
DGENRE=Hörbuch
TTITLE0=Das erste Wort über den Ozean - Der neue Rhythmus (054)
TTITLE1=Cyrus W. Field (055)
TTITLE2=Die Vorbereitung (056)
TTITLE3=Der erste Start (057)
TTITLE4=Mißgeschick (058)
TTITLE5=Noch einmal Mißgeschick (059)
TTITLE6=Die dritte Fahrt (060)
TTITLE7=Das große Hosianna (061)
TTITLE8=Das große Crucifige (062)
TTITLE9=Sechs Jahre Schweigen (063)
EXTD=
EXTT0=
EXTT1=
EXTT2=
EXTT3=
EXTT4=
EXTT5=
EXTT6=
EXTT7=
EXTT8=
EXTT9=
PLAYORDER=
